# Blender v2.91.0 OBJ File: ''
# www.blender.org
mtllib Field.mtl
o obj_0
v -5.300000 0.199801 3.049800
v -5.300000 0.500001 3.049800
v -5.300000 0.499997 -9.000000
v -5.300000 0.500003 7.500000
v -5.300000 0.500001 3.950300
v -5.300000 0.199801 3.950300
v -5.300000 0.000003 7.600000
v -5.300000 -0.000003 -9.100000
v -5.200000 0.500001 3.950300
v -5.200000 0.199801 3.950300
v -5.300000 2.000003 7.599999
v -5.300000 2.000003 7.500000
v -5.300000 1.999997 -9.100001
v -5.300000 1.999997 -9.000001
v 3.100000 2.000003 7.599999
v 3.100000 0.500003 7.500000
v 3.100000 2.000003 7.500000
v 3.100000 1.999997 -9.000001
v 3.100000 1.999997 -9.100001
v 3.100000 0.000003 7.600000
v 3.100000 0.199798 -5.500300
v 3.100000 -0.000003 -9.100000
v 3.100000 0.499997 -9.000000
v 3.100000 0.499998 -5.500300
v -5.200000 0.199801 3.049800
v -5.200000 0.099997 -9.000000
v -1.000000 0.899797 -9.000000
v -1.200000 0.899797 -9.000000
v -1.200000 1.900297 -9.000001
v -1.000000 1.900297 -9.000001
v -3.300100 0.899803 7.500000
v -5.200000 0.100003 7.500000
v -5.200000 0.500003 7.500000
v -5.200200 0.899797 -9.100000
v -3.300100 0.899797 -9.100000
v -3.100100 0.899797 -9.000000
v -3.300100 0.899797 -9.000000
v -5.200000 0.499997 -9.000000
v -3.300100 1.900297 -9.000001
v -3.100100 1.900297 -9.000001
v -3.300100 1.900297 -9.100001
v -5.200200 1.900297 -9.100001
v -5.200200 0.899803 7.500000
v -5.200200 0.899797 -9.000000
v -5.200200 1.900297 -9.000001
v -3.100100 0.899797 -9.100000
v -1.200000 0.899797 -9.100000
v -3.100100 1.900297 -9.100001
v -1.200000 1.900297 -9.100001
v 3.000300 1.900303 7.599999
v 3.000300 1.900303 7.500000
v 3.000300 0.899803 7.500000
v 3.000300 0.899803 7.599999
v -1.000000 0.899797 -9.100000
v 0.900100 0.899797 -9.100000
v -1.200000 1.900303 7.599999
v -1.200000 1.900303 7.500000
v -1.200000 0.899803 7.500000
v -1.200000 0.899803 7.599999
v 3.000000 0.499997 -9.000000
v 3.000000 0.499998 -5.500300
v 0.900100 1.900297 -9.100001
v -1.000000 1.900297 -9.100001
v 0.900100 0.899803 7.599999
v 0.900100 0.899803 7.500000
v -1.000000 0.899803 7.500000
v -1.000000 0.899803 7.599999
v 1.100100 0.899797 -9.100000
v 3.000300 0.899797 -9.100000
v 0.900100 1.900303 7.500000
v 0.900100 1.900303 7.599999
v -1.000000 1.900303 7.599999
v -1.000000 1.900303 7.500000
v 3.100000 0.499998 -4.599800
v 3.000000 0.499998 -4.599800
v 3.000000 0.500003 7.500000
v 3.000300 1.900297 -9.100001
v 1.100100 1.900297 -9.100001
v 3.000000 0.199798 -5.500300
v 3.100000 0.199798 -4.599800
v 3.000000 0.199798 -4.599800
v 1.100100 1.900303 7.500000
v 1.100100 1.900303 7.599999
v 1.100100 0.899803 7.599999
v 1.100100 0.899803 7.500000
v -3.100100 1.900303 7.500000
v -3.100100 1.900303 7.599999
v -3.100100 0.899803 7.599999
v -3.100100 0.899803 7.500000
v -5.200200 1.900303 7.500000
v -5.200200 1.900303 7.599999
v -5.200200 0.899803 7.599999
v 3.000000 0.100003 7.500000
v 3.000000 0.099997 -9.000000
v 0.900100 1.900297 -9.000001
v -3.300100 1.900303 7.500000
v 0.900100 0.899797 -9.000000
v 3.000300 0.899797 -9.000000
v 1.100100 0.899797 -9.000000
v 1.100100 1.900297 -9.000001
v 3.000300 1.900297 -9.000001
v -3.300100 0.899803 7.599999
v -3.300100 1.900303 7.599999
v -5.200000 0.500001 3.049800
v -5.300000 0.199801 3.049800
v -5.300000 0.199801 3.049800
v -5.300000 0.500001 3.049800
v -5.300000 0.500001 3.049800
v -5.300000 0.500001 3.950300
v -5.300000 0.500001 3.950300
v -5.300000 0.199801 3.950300
v -5.300000 0.199801 3.950300
v -5.200000 0.500001 3.950300
v -5.200000 0.500001 3.950300
v -5.200000 0.199801 3.950300
v -5.200000 0.199801 3.950300
v -5.300000 1.999997 -9.100001
v -5.300000 1.999997 -9.100001
v -5.300000 1.999997 -9.000001
v -5.300000 1.999997 -9.000001
v 3.100000 0.000003 7.600000
v 3.100000 0.000003 7.600000
v 3.100000 -0.000003 -9.100000
v 3.100000 -0.000003 -9.100000
v 3.100000 1.999997 -9.100001
v 3.100000 1.999997 -9.100001
v 3.100000 0.199798 -5.500300
v 3.100000 0.199798 -5.500300
v 3.100000 0.499998 -5.500300
v 3.100000 0.499998 -5.500300
v -5.200000 0.199801 3.049800
v -5.200000 0.199801 3.049800
v -5.200000 0.500003 7.500000
v -5.200000 0.500003 7.500000
v -3.300100 0.899797 -9.000000
v -3.300100 0.899797 -9.000000
v -3.300100 1.900297 -9.000001
v -3.300100 1.900297 -9.000001
v -1.200000 1.900297 -9.000001
v -1.200000 1.900297 -9.000001
v -3.100100 1.900297 -9.000001
v -3.100100 1.900297 -9.000001
v -5.200200 0.899797 -9.000000
v -5.200200 0.899797 -9.000000
v -1.200000 1.900303 7.500000
v -1.200000 1.900303 7.500000
v -1.200000 0.899803 7.500000
v -1.200000 0.899803 7.500000
v 0.900100 0.899803 7.500000
v 0.900100 0.899803 7.500000
v -1.000000 0.899803 7.500000
v -1.000000 0.899803 7.500000
v 0.900100 1.900303 7.500000
v 0.900100 1.900303 7.500000
v 3.000300 0.899797 -9.100000
v 3.000300 0.899797 -9.100000
v 3.000300 1.900297 -9.100001
v 3.000300 1.900297 -9.100001
v 1.100100 1.900297 -9.100001
v 1.100100 1.900297 -9.100001
v 3.000000 0.499998 -5.500300
v 3.000000 0.499998 -5.500300
v 3.000000 0.199798 -5.500300
v 3.000000 0.199798 -5.500300
v 3.100000 0.199798 -4.599800
v 3.100000 0.199798 -4.599800
v 3.000300 0.899803 7.599999
v 3.000300 0.899803 7.599999
v 1.100100 0.899803 7.599999
v 1.100100 0.899803 7.599999
v -3.100100 1.900303 7.500000
v -3.100100 1.900303 7.500000
v 3.000300 0.899797 -9.000000
v 3.000300 0.899797 -9.000000
v 3.000300 1.900297 -9.000001
v 3.000300 1.900297 -9.000001
v -5.200000 0.500001 3.049800
v -5.200000 0.500001 3.049800
v -1.000000 1.900303 7.500000
v -1.000000 1.900303 7.500000
v -3.100100 0.899803 7.500000
v -3.100100 0.899803 7.500000
v 3.000000 0.100003 7.500000
v 3.000000 0.100003 7.500000
v 3.000000 0.099997 -9.000000
v 3.000000 0.099997 -9.000000
v -1.200000 0.899797 -9.000000
v -1.200000 0.899797 -9.000000
v -1.200000 0.899797 -9.100000
v -1.200000 0.899797 -9.100000
v 0.900100 1.900297 -9.100001
v 0.900100 1.900297 -9.100001
v 0.900100 1.900297 -9.000001
v 0.900100 1.900297 -9.000001
v 3.000300 1.900303 7.599999
v 3.000300 1.900303 7.599999
v 1.100100 1.900303 7.599999
v 1.100100 1.900303 7.599999
v -5.300000 0.000003 7.600000
v -5.300000 0.000003 7.600000
v 0.900100 0.899797 -9.100000
v 0.900100 0.899797 -9.100000
v -3.300100 0.899803 7.500000
v -3.300100 0.899803 7.500000
v -3.300100 0.899803 7.599999
v -3.300100 0.899803 7.599999
v -3.100100 0.899797 -9.000000
v -3.100100 0.899797 -9.000000
v -3.100100 0.899797 -9.100000
v -3.100100 0.899797 -9.100000
v -5.300000 0.499997 -9.000000
v -5.300000 0.499997 -9.000000
v 3.100000 1.999997 -9.000001
v 3.100000 1.999997 -9.000001
v -5.200000 0.099997 -9.000000
v -5.200000 0.099997 -9.000000
v -5.200000 0.100003 7.500000
v -5.200000 0.100003 7.500000
v -5.200200 0.899797 -9.100000
v -5.200200 0.899797 -9.100000
v -3.300100 0.899797 -9.100000
v -3.300100 0.899797 -9.100000
v -5.200000 0.499997 -9.000000
v -5.200000 0.499997 -9.000000
v -5.200200 1.900297 -9.100001
v -5.200200 1.900297 -9.100001
v -3.100100 1.900297 -9.100001
v -3.100100 1.900297 -9.100001
v 3.000300 1.900303 7.500000
v 3.000300 1.900303 7.500000
v -1.000000 0.899797 -9.100000
v -1.000000 0.899797 -9.100000
v -1.200000 0.899803 7.599999
v -1.200000 0.899803 7.599999
v -1.000000 1.900297 -9.100001
v -1.000000 1.900297 -9.100001
v -1.000000 0.899803 7.599999
v -1.000000 0.899803 7.599999
v 0.900100 1.900303 7.599999
v 0.900100 1.900303 7.599999
v 3.100000 0.499998 -4.599800
v 3.100000 0.499998 -4.599800
v 3.000000 0.499998 -4.599800
v 3.000000 0.499998 -4.599800
v 1.100100 1.900303 7.500000
v 1.100100 1.900303 7.500000
v 1.100100 0.899803 7.500000
v 1.100100 0.899803 7.500000
v -3.100100 1.900303 7.599999
v -3.100100 1.900303 7.599999
v -5.200200 1.900303 7.500000
v -5.200200 1.900303 7.500000
v -5.200200 1.900303 7.599999
v -5.200200 1.900303 7.599999
v -3.300100 1.900303 7.500000
v -3.300100 1.900303 7.500000
v 1.100100 0.899797 -9.000000
v 1.100100 0.899797 -9.000000
v 1.100100 1.900297 -9.000001
v 1.100100 1.900297 -9.000001
v -3.300100 1.900303 7.599999
v -3.300100 1.900303 7.599999
v -1.000000 1.900303 7.599999
v -1.000000 1.900303 7.599999
v -5.200200 0.899803 7.500000
v -5.200200 0.899803 7.500000
v -5.200200 0.899803 7.599999
v -5.200200 0.899803 7.599999
v -1.200000 1.900297 -9.100001
v -1.200000 1.900297 -9.100001
v 3.100000 0.499997 -9.000000
v 3.100000 0.499997 -9.000000
v 3.000000 0.199798 -4.599800
v 3.000000 0.199798 -4.599800
v -5.300000 2.000003 7.599999
v -5.300000 2.000003 7.599999
v -5.300000 2.000003 7.500000
v -5.300000 2.000003 7.500000
v 3.100000 2.000003 7.599999
v 3.100000 2.000003 7.599999
v 3.100000 2.000003 7.500000
v 3.100000 2.000003 7.500000
v -1.000000 0.899797 -9.000000
v -1.000000 0.899797 -9.000000
v -1.000000 1.900297 -9.000001
v -1.000000 1.900297 -9.000001
v -3.300100 1.900297 -9.100001
v -3.300100 1.900297 -9.100001
v -5.200200 1.900297 -9.000001
v -5.200200 1.900297 -9.000001
v 3.000300 0.899803 7.500000
v 3.000300 0.899803 7.500000
v 3.000000 0.499997 -9.000000
v 3.000000 0.499997 -9.000000
v 3.000000 0.500003 7.500000
v 3.000000 0.500003 7.500000
v -5.300000 -0.000003 -9.100000
v -5.300000 -0.000003 -9.100000
v -3.100100 0.899803 7.599999
v -3.100100 0.899803 7.599999
v 0.900100 0.899797 -9.000000
v 0.900100 0.899797 -9.000000
v -5.300000 0.500003 7.500000
v -5.300000 0.500003 7.500000
v 3.100000 0.500003 7.500000
v 3.100000 0.500003 7.500000
v -1.200000 1.900303 7.599999
v -1.200000 1.900303 7.599999
v 0.900100 0.899803 7.599999
v 0.900100 0.899803 7.599999
v 1.100100 0.899797 -9.100000
v 1.100100 0.899797 -9.100000
vn -1.0000 0.0000 0.0000
vn 0.0000 0.0000 -1.0000
vn 1.0000 0.0000 0.0000
vn 0.0000 1.0000 0.0000
vn 0.0000 0.0000 1.0000
vn 0.0000 -1.0000 0.0000
usemtl color_12568524
s 1
f 105//1 107//1 211//1
f 303//1 109//1 111//1
f 105//1 199//1 111//1
f 211//1 297//1 105//1
f 113//2 115//2 112//2
f 113//2 112//2 110//2
f 111//1 199//1 303//1
f 199//1 276//1 303//1
f 278//1 303//1 276//1
f 199//1 105//1 297//1
f 117//1 297//1 211//1
f 117//1 211//1 119//1
f 280//3 305//3 282//3
f 213//4 125//4 120//4
f 125//4 118//4 120//4
f 280//3 20//3 305//3
f 127//3 124//3 271//3
f 129//3 127//3 271//3
f 131//4 106//4 6//4
f 131//4 6//4 10//4
f 216//5 283//5 188//5
f 139//5 188//5 283//5
f 283//5 285//5 139//5
f 14//5 139//5 285//5
f 14//5 285//5 214//5
f 31//2 218//2 134//2
f 219//2 221//2 8//2
f 216//5 36//5 135//5
f 135//5 223//5 216//5
f 137//5 135//5 36//5
f 36//5 141//5 137//5
f 141//5 14//5 137//5
f 13//2 287//2 225//2
f 265//2 31//2 134//2
f 14//5 3//5 144//5
f 14//5 144//5 289//5
f 298//6 123//6 121//6
f 210//2 190//2 8//2
f 136//4 222//4 220//4
f 136//4 220//4 143//4
f 227//2 13//2 269//2
f 196//1 51//1 292//1
f 196//1 292//1 168//1
f 231//2 201//2 22//2
f 308//1 145//1 147//1
f 308//1 147//1 234//1
f 272//4 293//4 162//4
f 272//4 162//4 130//4
f 126//2 192//2 235//2
f 310//4 149//4 151//4
f 310//4 151//4 238//4
f 311//2 155//2 22//2
f 154//6 240//6 263//6
f 154//6 263//6 73//6
f 241//4 243//4 295//4
f 241//4 295//4 16//4
f 126//2 157//2 159//2
f 239//1 153//1 150//1
f 239//1 150//1 64//1
f 15//5 167//5 122//5
f 126//2 22//2 155//2
f 126//2 155//2 157//2
f 161//5 163//5 128//5
f 161//5 128//5 24//5
f 22//2 201//2 311//2
f 159//2 311//2 201//2
f 201//2 192//2 159//2
f 126//2 159//2 192//2
f 242//2 80//2 81//2
f 242//2 81//2 244//2
f 273//4 165//4 21//4
f 273//4 21//4 164//4
f 231//2 22//2 190//2
f 8//2 190//2 22//2
f 235//2 231//2 190//2
f 190//2 269//2 235//2
f 126//2 235//2 269//2
f 121//6 7//6 298//6
f 246//3 83//3 170//3
f 246//3 170//3 248//3
f 135//5 144//5 223//5
f 305//3 20//3 166//3
f 305//3 166//3 74//3
f 180//3 264//3 67//3
f 180//3 67//3 152//3
f 144//5 3//5 223//5
f 166//3 124//3 127//3
f 20//3 124//3 166//3
f 172//3 87//3 299//3
f 172//3 299//3 182//3
f 251//3 253//3 92//3
f 251//3 92//3 266//3
f 137//5 14//5 289//5
f 124//3 19//3 271//3
f 18//3 271//3 19//3
f 188//5 36//5 216//5
f 60//1 79//1 61//1
f 14//5 141//5 139//5
f 183//1 76//1 274//1
f 75//1 274//1 76//1
f 79//1 185//1 274//1
f 60//1 185//1 79//1
f 183//1 274//1 185//1
f 214//5 285//5 194//5
f 167//5 169//5 122//5
f 169//5 309//5 122//5
f 15//5 197//5 195//5
f 290//6 42//6 39//6
f 288//6 39//6 42//6
f 277//2 255//2 252//2
f 138//1 41//1 35//1
f 138//1 35//1 37//1
f 279//4 12//4 11//4
f 184//2 218//2 148//2
f 187//4 47//4 209//4
f 187//4 209//4 207//4
f 277//2 146//2 171//2
f 270//6 29//6 142//6
f 270//6 142//6 48//6
f 12//4 279//4 17//4
f 140//1 49//1 189//1
f 140//1 189//1 28//1
f 66//2 65//2 184//2
f 195//5 167//5 15//5
f 302//4 55//4 232//4
f 302//4 232//4 27//4
f 191//6 193//6 286//6
f 191//6 286//6 63//6
f 247//2 291//2 296//2
f 95//1 62//1 202//1
f 95//1 202//1 97//1
f 245//2 70//2 281//2
f 229//2 245//2 281//2
f 247//2 296//2 184//2
f 296//2 291//2 306//2
f 281//2 306//2 291//2
f 281//2 291//2 229//2
f 173//4 156//4 312//4
f 173//4 312//4 258//4
f 85//4 84//4 52//4
f 53//4 52//4 84//4
f 259//6 160//6 175//6
f 158//6 175//6 160//6
f 247//2 184//2 65//2
f 245//2 247//2 65//2
f 65//2 70//2 245//2
f 70//2 179//2 281//2
f 277//2 281//2 179//2
f 230//6 50//6 198//6
f 230//6 198//6 82//6
f 176//1 77//1 69//1
f 176//1 69//1 98//1
f 78//3 260//3 99//3
f 78//3 99//3 68//3
f 184//2 148//2 66//2
f 179//2 66//2 148//2
f 148//2 146//2 179//2
f 277//2 179//2 146//2
f 8//2 221//2 210//2
f 227//2 210//2 221//2
f 221//2 287//2 227//2
f 287//2 13//2 227//2
f 126//2 269//2 13//2
f 236//3 30//3 284//3
f 236//3 284//3 54//3
f 8//2 13//2 219//2
f 225//2 219//2 13//2
f 218//2 31//2 181//2
f 181//2 148//2 218//2
f 171//2 181//2 31//2
f 31//2 255//2 171//2
f 277//2 171//2 255//2
f 228//3 40//3 208//3
f 228//3 208//3 46//3
f 267//5 200//5 102//5
f 226//3 45//3 44//3
f 226//3 44//3 34//3
f 304//2 277//2 265//2
f 134//2 304//2 265//2
f 252//2 265//2 277//2
f 275//5 254//5 262//5
f 43//4 268//4 203//4
f 205//4 203//4 268//4
f 233//5 300//5 200//5
f 256//6 103//6 91//6
f 90//6 256//6 91//6
f 15//5 275//5 307//5
f 261//1 96//1 204//1
f 261//1 204//1 206//1
f 237//5 233//5 200//5
f 59//4 58//4 89//4
f 59//4 89//4 88//4
f 57//6 56//6 249//6
f 57//6 249//6 86//6
f 294//5 257//5 186//5
f 257//5 301//5 186//5
f 174//5 257//5 294//5
f 309//5 237//5 122//5
f 200//5 122//5 237//5
f 71//5 309//5 169//5
f 169//5 197//5 71//5
f 15//5 71//5 197//5
f 101//5 214//5 100//5
f 307//5 233//5 237//5
f 237//5 72//5 307//5
f 15//5 307//5 72//5
f 72//5 71//5 15//5
f 200//5 300//5 102//5
f 262//5 102//5 300//5
f 300//5 250//5 262//5
f 250//5 307//5 275//5
f 262//5 250//5 275//5
f 275//5 200//5 267//5
f 275//5 267//5 254//5
f 23//5 214//5 174//5
f 294//5 23//5 174//5
f 101//5 174//5 214//5
f 301//5 283//5 186//5
f 216//5 186//5 283//5
f 194//5 301//5 257//5
f 257//5 100//5 194//5
f 214//5 194//5 100//5
f 32//4 93//4 26//4
f 26//4 93//4 94//4
f 224//3 177//3 132//3
f 116//3 114//3 133//3
f 116//3 133//3 217//3
f 116//3 217//3 132//3
f 217//3 215//3 132//3
f 224//3 132//3 215//3
f 2//4 178//4 212//4
f 38//4 212//4 178//4
f 4//4 33//4 5//4
f 9//4 5//4 33//4
f 108//5 1//5 25//5
f 108//5 25//5 104//5
