# Blender v2.90.1 OBJ File: 'FieldV4.blend'
# www.blender.org
mtllib Field.mtl
o mesh175
v 4.114815 0.754379 5.968976
v 3.987815 0.754378 8.102575
v 3.987815 0.754379 5.968976
v 4.114815 0.226999 5.968976
v 4.114815 0.226999 5.054576
v 4.114815 0.754379 5.054576
v 3.987815 0.754379 5.054576
v 3.987815 0.754382 -8.102575
v 3.987815 0.100002 -8.102575
v 3.987815 0.226999 5.054576
v 3.987815 0.226999 5.968976
v 4.114815 -0.000002 8.229575
v 4.114815 0.000002 -8.229574
v 4.114815 0.754382 -8.102575
v 4.114815 1.999998 8.102575
v 4.114815 2.000002 -8.229574
v -4.114815 2.000002 -8.102575
v 4.114815 2.000002 -8.102575
v 4.114815 1.999998 8.229576
v -4.114815 2.000002 -8.229574
v -4.114815 0.754382 -8.102575
v -4.114815 0.227002 -5.968975
v -4.114815 -0.000002 8.229575
v -4.114815 0.227001 -5.054575
v -3.987815 0.227001 -5.054575
v -3.987815 0.100002 -8.102575
v -3.987815 0.754381 -5.968975
v -4.114815 0.754381 -5.968975
v -4.114815 0.754378 8.102575
v -3.987815 0.754378 8.102575
v -3.987815 0.754381 -5.054575
v -4.114815 0.754381 -5.054575
v -3.987815 0.227002 -5.968975
v -3.987815 0.099998 8.102575
v 0.127765 0.999998 8.102575
v -4.114815 1.999998 8.102575
v -2.121305 1.830498 8.102575
v 1.865715 1.830498 8.102575
v 3.987815 0.099998 8.102575
v -0.127795 0.999998 8.102575
v -2.121305 0.999998 8.102575
v 2.121275 1.830498 8.102575
v 4.114815 0.754378 8.102575
v 2.121275 1.830498 8.229575
v 2.121275 0.999998 8.229575
v -0.127795 1.830498 8.229575
v -2.121305 0.999998 8.229575
v 0.127765 0.999998 8.229575
v -4.114815 1.999998 8.229576
v -3.859255 1.830498 8.229575
v -3.859255 0.999998 8.229575
v 2.121275 0.999998 8.102575
v 3.859215 0.999998 8.229575
v 3.859215 0.999998 8.102575
v 3.859215 1.830498 8.102575
v 3.859215 1.830498 8.229575
v 1.865715 1.830498 8.229575
v 1.865715 0.999998 8.102575
v 1.865715 0.999998 8.229575
v 0.127765 1.830498 8.102575
v 0.127765 1.830498 8.229575
v -1.865745 0.999998 8.102575
v -1.865745 1.830498 8.229575
v -0.127795 0.999998 8.229575
v -1.865745 0.999998 8.229575
v -1.865745 1.830498 8.102575
v -0.127795 1.830498 8.102575
v -3.859255 0.999998 8.102575
v -3.859255 1.830498 8.102575
v -2.121305 1.830498 8.229575
v 3.859215 1.830502 -8.102575
v 3.859215 1.000002 -8.102575
v 1.865715 1.830502 -8.102575
v 1.865715 1.000002 -8.102575
v 0.127765 1.000002 -8.102575
v -2.121305 1.830502 -8.102575
v -3.859255 1.000002 -8.102575
v -3.987815 0.754382 -8.102575
v -2.121305 1.830502 -8.229574
v 0.127765 1.830502 -8.229574
v 2.121275 1.830502 -8.229574
v 3.859215 1.000002 -8.229574
v -4.114815 0.000002 -8.229574
v 0.127765 1.000002 -8.229574
v -3.859255 1.000002 -8.229574
v -3.859255 1.830502 -8.229574
v 2.121275 1.830502 -8.102575
v 3.859215 1.830502 -8.229574
v 2.121275 1.000002 -8.229574
v 2.121275 1.000002 -8.102575
v 0.127765 1.830502 -8.102575
v 1.865715 1.830502 -8.229574
v 1.865715 1.000002 -8.229574
v -1.865745 1.830502 -8.229574
v -0.127795 1.830502 -8.102575
v -0.127795 1.830502 -8.229574
v -0.127795 1.000002 -8.229574
v -0.127795 1.000002 -8.102575
v -1.865745 1.000002 -8.229574
v -1.865745 1.830502 -8.102575
v -1.865745 1.000002 -8.102575
v -3.859255 1.830502 -8.102575
v -2.121305 1.000002 -8.229574
v -2.121305 1.000002 -8.102575
vn 0.0000 1.0000 0.0000
vn 0.0000 0.0000 -1.0000
vn 0.0000 0.0000 1.0000
vn -1.0000 0.0000 0.0000
vn 1.0000 0.0000 0.0000
vn 0.0000 -1.0000 -0.0000
usemtl 0.917647_0.917647_0.917647_0.000000_0.000000
s 1
f 34//1 39//1 9//1
f 9//1 26//1 34//1
f 1//1 3//1 2//1
f 2//1 43//1 1//1
f 11//2 3//2 1//2
f 1//2 4//2 11//2
f 10//1 11//1 4//1
f 4//1 5//1 10//1
f 6//3 7//3 10//3
f 10//3 5//3 6//3
f 14//1 8//1 7//1
f 7//1 6//1 14//1
f 8//4 9//4 10//4
f 39//4 11//4 10//4
f 10//4 9//4 39//4
f 2//4 3//4 11//4
f 11//4 39//4 2//4
f 10//4 7//4 8//4
f 4//5 1//5 43//5
f 12//5 13//5 5//5
f 5//5 4//5 12//5
f 5//5 13//5 14//5
f 14//5 6//5 5//5
f 16//5 18//5 14//5
f 19//5 12//5 43//5
f 14//5 13//5 16//5
f 43//5 12//5 4//5
f 43//5 15//5 19//5
f 16//1 20//1 17//1
f 17//1 18//1 16//1
f 19//1 15//1 36//1
f 36//1 49//1 19//1
f 13//6 12//6 23//6
f 23//6 83//6 13//6
f 20//4 83//4 21//4
f 22//4 28//4 21//4
f 21//4 83//4 22//4
f 83//4 23//4 24//4
f 24//4 23//4 29//4
f 49//4 36//4 29//4
f 24//4 22//4 83//4
f 29//4 23//4 49//4
f 29//4 32//4 24//4
f 21//4 17//4 20//4
f 30//5 34//5 25//5
f 26//5 33//5 25//5
f 25//5 34//5 26//5
f 78//5 27//5 33//5
f 33//5 26//5 78//5
f 25//5 31//5 30//5
f 21//1 28//1 27//1
f 27//1 78//1 21//1
f 29//1 30//1 31//1
f 31//1 32//1 29//1
f 31//2 25//2 24//2
f 24//2 32//2 31//2
f 33//3 27//3 28//3
f 28//3 22//3 33//3
f 24//1 25//1 33//1
f 33//1 22//1 24//1
f 15//2 67//2 66//2
f 34//2 35//2 58//2
f 36//2 15//2 37//2
f 66//2 37//2 15//2
f 15//2 38//2 60//2
f 39//2 34//2 52//2
f 58//2 52//2 34//2
f 34//2 62//2 40//2
f 41//2 34//2 30//2
f 66//2 41//2 37//2
f 60//2 67//2 15//2
f 15//2 55//2 42//2
f 58//2 42//2 52//2
f 40//2 35//2 34//2
f 30//2 68//2 41//2
f 60//2 40//2 67//2
f 42//2 38//2 15//2
f 36//2 69//2 68//2
f 40//2 60//2 35//2
f 41//2 62//2 34//2
f 42//2 58//2 38//2
f 15//2 43//2 54//2
f 68//2 29//2 36//2
f 41//2 66//2 62//2
f 54//2 55//2 15//2
f 54//2 43//2 2//2
f 52//2 2//2 39//2
f 2//2 52//2 54//2
f 37//2 69//2 36//2
f 68//2 30//2 29//2
f 19//3 56//3 53//3
f 19//3 57//3 44//3
f 44//3 56//3 19//3
f 45//3 44//3 57//3
f 57//3 59//3 45//3
f 12//3 53//3 45//3
f 45//3 59//3 12//3
f 19//3 46//3 61//3
f 70//3 47//3 65//3
f 12//3 64//3 65//3
f 61//3 57//3 19//3
f 48//3 61//3 46//3
f 65//3 47//3 12//3
f 49//3 50//3 70//3
f 46//3 64//3 48//3
f 12//3 59//3 48//3
f 70//3 63//3 49//3
f 49//3 23//3 51//3
f 48//3 64//3 12//3
f 49//3 63//3 46//3
f 51//3 50//3 49//3
f 23//3 12//3 47//3
f 46//3 19//3 49//3
f 47//3 51//3 23//3
f 65//3 63//3 70//3
f 53//3 12//3 19//3
f 52//5 42//5 44//5
f 44//5 45//5 52//5
f 53//1 54//1 52//1
f 52//1 45//1 53//1
f 56//4 55//4 54//4
f 54//4 53//4 56//4
f 42//6 55//6 56//6
f 56//6 44//6 42//6
f 35//5 60//5 61//5
f 61//5 48//5 35//5
f 59//1 58//1 35//1
f 35//1 48//1 59//1
f 57//4 38//4 58//4
f 58//4 59//4 57//4
f 60//6 38//6 57//6
f 57//6 61//6 60//6
f 62//5 66//5 63//5
f 63//5 65//5 62//5
f 64//1 40//1 62//1
f 62//1 65//1 64//1
f 46//4 67//4 40//4
f 40//4 64//4 46//4
f 66//6 67//6 46//6
f 46//6 63//6 66//6
f 68//5 69//5 50//5
f 50//5 51//5 68//5
f 47//1 41//1 68//1
f 68//1 51//1 47//1
f 70//4 37//4 41//4
f 41//4 47//4 70//4
f 69//6 37//6 70//6
f 70//6 50//6 69//6
f 18//3 71//3 72//3
f 18//3 73//3 87//3
f 87//3 71//3 18//3
f 90//3 87//3 73//3
f 90//3 9//3 8//3
f 73//3 74//3 90//3
f 8//3 72//3 90//3
f 90//3 74//3 9//3
f 72//3 14//3 18//3
f 18//3 95//3 91//3
f 91//3 73//3 18//3
f 75//3 91//3 95//3
f 95//3 98//3 75//3
f 9//3 74//3 75//3
f 75//3 98//3 9//3
f 18//3 76//3 100//3
f 100//3 95//3 18//3
f 101//3 100//3 76//3
f 76//3 104//3 101//3
f 9//3 98//3 101//3
f 101//3 104//3 9//3
f 17//3 102//3 76//3
f 76//3 18//3 17//3
f 17//3 21//3 77//3
f 77//3 102//3 17//3
f 77//3 21//3 78//3
f 26//3 9//3 104//3
f 78//3 104//3 77//3
f 8//3 14//3 72//3
f 104//3 78//3 26//3
f 16//2 96//2 94//2
f 20//2 16//2 79//2
f 94//2 79//2 16//2
f 16//2 92//2 80//2
f 94//2 103//2 79//2
f 80//2 96//2 16//2
f 16//2 88//2 81//2
f 80//2 97//2 96//2
f 81//2 92//2 16//2
f 81//2 93//2 92//2
f 16//2 13//2 82//2
f 82//2 88//2 16//2
f 13//2 83//2 89//2
f 83//2 84//2 93//2
f 89//2 82//2 13//2
f 93//2 89//2 83//2
f 83//2 99//2 97//2
f 93//2 81//2 89//2
f 97//2 84//2 83//2
f 83//2 85//2 103//2
f 97//2 80//2 84//2
f 103//2 99//2 83//2
f 103//2 94//2 99//2
f 20//2 86//2 85//2
f 85//2 83//2 20//2
f 79//2 86//2 20//2
f 81//6 88//6 71//6
f 71//6 87//6 81//6
f 71//4 88//4 82//4
f 82//4 72//4 71//4
f 72//1 82//1 89//1
f 89//1 90//1 72//1
f 89//5 81//5 87//5
f 87//5 90//5 89//5
f 80//6 92//6 73//6
f 73//6 91//6 80//6
f 73//4 92//4 93//4
f 93//4 74//4 73//4
f 74//1 93//1 84//1
f 84//1 75//1 74//1
f 84//5 80//5 91//5
f 91//5 75//5 84//5
f 94//6 96//6 95//6
f 95//6 100//6 94//6
f 95//4 96//4 97//4
f 97//4 98//4 95//4
f 98//1 97//1 99//1
f 99//1 101//1 98//1
f 99//5 94//5 100//5
f 100//5 101//5 99//5
f 86//6 79//6 76//6
f 76//6 102//6 86//6
f 76//4 79//4 103//4
f 103//4 104//4 76//4
f 104//1 103//1 85//1
f 85//1 77//1 104//1
f 85//5 86//5 102//5
f 102//5 77//5 85//5
