# Blender v2.91.0 OBJ File: ''
# www.blender.org
mtllib GamePiece.mtl
o obj_0
v -0.152000 -0.035413 -0.108900
v 0.152000 -0.035413 -0.108900
v 0.152000 -0.067313 -0.092600
v 0.152000 0.067287 0.092599
v -0.152000 0.035387 0.108900
v 0.152000 0.035387 0.108900
v 0.152000 -0.092613 -0.067300
v -0.152000 -0.067313 -0.092600
v -0.152000 -0.092613 -0.067300
v 0.152000 -0.000013 0.114500
v 0.152000 0.108887 -0.035400
v -0.152000 0.092687 -0.067300
v -0.152000 0.108887 -0.035400
v 0.152000 -0.108913 -0.035400
v -0.152000 -0.114513 0.000000
v -0.152000 -0.108913 -0.035400
v -0.152000 0.108887 0.035400
v -0.152000 0.114487 0.000000
v -0.152000 0.067287 -0.092600
v -0.152000 0.035387 -0.108900
v -0.152000 -0.000013 -0.114500
v 0.152000 -0.000013 -0.114500
v -0.152000 -0.108913 0.035400
v 0.152000 -0.108913 0.035400
v 0.152000 -0.092613 0.067300
v 0.152000 -0.114513 0.000000
v -0.152000 0.067287 0.092599
v -0.152000 0.092687 0.067300
v -0.152000 -0.000013 0.114500
v -0.152000 -0.067313 0.092599
v -0.152000 -0.035413 0.108900
v 0.152000 0.035387 -0.108900
v -0.152000 -0.092613 0.067300
v 0.152000 -0.035413 0.108900
v 0.152000 0.067287 -0.092600
v 0.152000 -0.067313 0.092599
v 0.152000 0.092687 -0.067300
v 0.152000 0.114487 0.000000
v 0.152000 0.108887 0.035400
v 0.152000 0.092687 0.067300
v 0.152000 -0.067313 -0.092600
v 0.152000 -0.092613 -0.067300
v 0.152000 -0.108913 -0.035400
v -0.152000 -0.114513 0.000000
v -0.152000 -0.108913 -0.035400
v -0.152000 0.108887 0.035400
v -0.152000 0.114487 0.000000
v -0.152000 -0.108913 0.035400
v -0.152000 0.035387 0.108900
v -0.152000 0.067287 0.092599
v -0.152000 0.092687 0.067300
v -0.152000 -0.092613 0.067300
v -0.152000 -0.035413 -0.108900
v -0.152000 -0.067313 -0.092600
v 0.152000 0.108887 -0.035400
v 0.152000 0.114487 0.000000
v 0.152000 0.108887 0.035400
v 0.152000 0.092687 0.067300
v -0.152000 -0.000013 -0.114500
v -0.152000 -0.092613 -0.067300
v 0.152000 0.035387 -0.108900
v 0.152000 0.067287 -0.092600
v -0.152000 -0.000013 0.114500
v -0.152000 0.108887 -0.035400
v 0.152000 -0.035413 0.108900
v 0.152000 -0.067313 0.092599
v -0.152000 0.067287 -0.092600
v -0.152000 0.035387 -0.108900
v 0.152000 -0.035413 -0.108900
v 0.152000 0.067287 0.092599
v 0.152000 0.035387 0.108900
v 0.152000 0.092687 -0.067300
v 0.152000 -0.000013 0.114500
v -0.152000 0.092687 -0.067300
v 0.152000 -0.000013 -0.114500
v 0.152000 -0.108913 0.035400
v 0.152000 -0.092613 0.067300
v 0.152000 -0.114513 0.000000
v -0.152000 -0.067313 0.092599
v -0.152000 -0.035413 0.108900
vn 0.0000 -0.3095 -0.9509
vn 0.0000 -0.5882 -0.8086
vn 0.0000 0.5875 0.8092
vn 0.0000 0.3095 0.9509
vn 0.0000 -0.8086 -0.5882
vn 0.0000 0.0000 1.0000
vn 0.0000 0.9513 -0.3083
vn 0.0000 0.8088 -0.5880
vn 0.0000 -0.9509 -0.3095
vn 0.0000 -1.0000 0.0000
vn -1.0000 0.0000 0.0000
vn 0.0000 0.0000 -1.0000
vn 0.0000 -0.9509 0.3095
vn 0.0000 -0.8086 0.5882
vn 0.0000 0.3095 -0.9509
vn 0.0000 -0.3095 0.9509
vn 0.0000 -0.5882 0.8086
vn 0.0000 0.5875 -0.8092
vn 1.0000 0.0000 0.0000
vn 0.0000 0.8088 0.5880
vn 0.0000 1.0000 0.0000
vn 0.0000 0.9513 0.3083
usemtl color_16089887
s 1
f 53//1 69//1 41//2
f 4//3 49//4 71//4
f 41//2 42//5 54//2
f 60//5 54//2 42//5
f 49//4 73//6 71//4
f 11//7 74//8 64//7
f 54//2 53//1 41//2
f 43//9 44//10 45//9
f 46//11 47//11 13//11
f 46//11 13//11 12//11
f 46//11 12//11 67//11
f 46//11 67//11 68//11
f 46//11 68//11 59//11
f 46//11 59//11 1//11
f 46//11 1//11 8//11
f 46//11 8//11 9//11
f 43//9 45//9 42//5
f 60//5 42//5 45//9
f 69//1 53//1 75//12
f 21//12 75//12 53//1
f 48//13 76//13 77//14
f 44//10 78//10 76//13
f 44//10 76//13 48//13
f 50//11 46//11 5//11
f 51//11 46//11 50//11
f 63//11 5//11 46//11
f 79//11 80//11 46//11
f 63//11 46//11 80//11
f 61//15 75//12 21//12
f 43//9 78//10 44//10
f 15//11 46//11 16//11
f 23//11 46//11 15//11
f 52//11 46//11 23//11
f 79//11 46//11 52//11
f 9//11 16//11 46//11
f 31//16 30//17 65//16
f 19//18 62//18 61//15
f 30//17 33//14 66//17
f 35//19 3//19 32//19
f 72//19 3//19 35//19
f 55//19 3//19 72//19
f 56//19 3//19 55//19
f 57//19 3//19 56//19
f 58//19 3//19 57//19
f 70//19 3//19 58//19
f 22//19 32//19 3//19
f 22//19 3//19 2//19
f 74//8 37//8 62//18
f 74//8 62//18 19//18
f 4//3 40//20 27//3
f 6//19 10//19 7//19
f 10//19 34//19 7//19
f 36//19 7//19 34//19
f 74//8 11//7 37//8
f 27//3 49//4 4//3
f 38//21 11//7 18//21
f 64//7 18//21 11//7
f 3//19 70//19 7//19
f 70//19 6//19 7//19
f 25//19 7//19 36//19
f 14//19 7//19 25//19
f 24//19 26//19 25//19
f 14//19 25//19 26//19
f 73//6 49//4 29//6
f 18//21 17//22 39//22
f 18//21 39//22 38//21
f 77//14 66//17 33//14
f 21//12 20//15 61//15
f 33//14 48//13 77//14
f 20//15 19//18 61//15
f 17//22 28//20 40//20
f 17//22 40//20 39//22
f 65//16 30//17 66//17
f 28//20 27//3 40//20
f 31//16 65//16 29//6
f 73//6 29//6 65//16
